<svg width="13" height="13" viewBox="0 0 13 13" fill="none" xmlns="http://www.w3.org/2000/svg">
  <path d="M12.1657 3.25001C11.7486 3.43959 11.299 3.56417 10.8332 3.62376C11.3098 3.33667 11.6782 2.88167 11.8515 2.33459C11.4019 2.60542 10.9036 2.79501 10.3782 2.90334C9.95024 2.43751 9.34899 2.16667 8.66649 2.16667C7.39357 2.16667 6.35357 3.20667 6.35357 4.49042C6.35357 4.67459 6.37524 4.85334 6.41315 5.02126C4.48482 4.92376 2.76773 3.99751 1.62482 2.59459C1.4244 2.93584 1.31065 3.33667 1.31065 3.75917C1.31065 4.56626 1.7169 5.28126 2.34523 5.68751C1.96065 5.68751 1.60315 5.57917 1.28898 5.41667V5.43292C1.28898 6.55959 2.09065 7.50209 3.15232 7.71334C2.81146 7.80662 2.45362 7.8196 2.1069 7.75126C2.25402 8.21302 2.54215 8.61706 2.93079 8.90659C3.31942 9.19613 3.78902 9.35659 4.27357 9.36542C3.4522 10.0157 2.43407 10.3671 1.38648 10.3621C1.20232 10.3621 1.01815 10.3513 0.833984 10.3296C1.86315 10.9904 3.08732 11.375 4.39815 11.375C8.66649 11.375 11.0119 7.83251 11.0119 4.76126C11.0119 4.65834 11.0119 4.56084 11.0065 4.45792C11.4615 4.13292 11.8515 3.72126 12.1657 3.25001Z" fill="#1DA1F2"/>
</svg>
